<svg width="512" height="512" viewBox="0 0 512 512" fill="none" xmlns="http://www.w3.org/2000/svg">
<path d="M149.333 56V136C149.333 149.255 138.588 160 125.333 160H24C10.745 160 0 149.255 0 136V56C0 42.745 10.745 32 24 32H125.333C138.588 32 149.333 42.745 149.333 56ZM330.667 296V216C330.667 202.745 319.922 192 306.667 192H205.333C192.078 192 181.333 202.745 181.333 216V296C181.333 309.255 192.078 320 205.333 320H306.666C319.922 320 330.667 309.255 330.667 296V296ZM362.667 56V136C362.667 149.255 373.412 160 386.667 160H488C501.255 160 512 149.255 512 136V56C512 42.745 501.255 32 488 32H386.667C373.412 32 362.667 42.745 362.667 56V56ZM330.667 136V56C330.667 42.745 319.922 32 306.667 32H205.333C192.078 32 181.333 42.745 181.333 56V136C181.333 149.255 192.078 160 205.333 160H306.666C319.922 160 330.667 149.255 330.667 136V136ZM125.333 192H24C10.745 192 0 202.745 0 216V296C0 309.255 10.745 320 24 320H125.333C138.588 320 149.333 309.255 149.333 296V216C149.333 202.745 138.588 192 125.333 192V192ZM0 376V456C0 469.255 10.745 480 24 480H125.333C138.588 480 149.333 469.255 149.333 456V376C149.333 362.745 138.588 352 125.333 352H24C10.745 352 0 362.745 0 376ZM386.667 320H488C501.255 320 512 309.255 512 296V216C512 202.745 501.255 192 488 192H386.667C373.412 192 362.667 202.745 362.667 216V296C362.667 309.255 373.412 320 386.667 320ZM386.667 480H488C501.255 480 512 469.255 512 456V376C512 362.745 501.255 352 488 352H386.667C373.412 352 362.667 362.745 362.667 376V456C362.667 469.255 373.412 480 386.667 480ZM181.333 376V456C181.333 469.255 192.078 480 205.333 480H306.666C319.921 480 330.666 469.255 330.666 456V376C330.666 362.745 319.921 352 306.666 352H205.333C192.078 352 181.333 362.745 181.333 376Z" fill="white"/>
</svg>
